<?xml version="1.0" encoding="UTF-8" standalone="no"?>
<svg
   xmlns:dc="http://purl.org/dc/elements/1.1/"
   xmlns:cc="http://creativecommons.org/ns#"
   xmlns:rdf="http://www.w3.org/1999/02/22-rdf-syntax-ns#"
   xmlns:svg="http://www.w3.org/2000/svg"
   xmlns="http://www.w3.org/2000/svg"
   xmlns:sodipodi="http://sodipodi.sourceforge.net/DTD/sodipodi-0.dtd"
   xmlns:inkscape="http://www.inkscape.org/namespaces/inkscape"
   version="1.1"
   id="Layer_1"
   x="0px"
   y="0px"
   viewBox="0 0 64.000001 64.000001"
   xml:space="preserve"
   sodipodi:docname="cancel.svg"
   width="64"
   height="64"
   inkscape:version="1.0.2 (e86c870879, 2021-01-15)"><metadata
   id="metadata39"><rdf:RDF><cc:Work
       rdf:about=""><dc:format>image/svg+xml</dc:format><dc:type
         rdf:resource="http://purl.org/dc/dcmitype/StillImage" /><dc:title></dc:title></cc:Work></rdf:RDF></metadata><defs
   id="defs37" /><sodipodi:namedview
   pagecolor="#ffffff"
   bordercolor="#666666"
   borderopacity="1"
   objecttolerance="10"
   gridtolerance="10"
   guidetolerance="10"
   inkscape:pageopacity="0"
   inkscape:pageshadow="2"
   inkscape:window-width="1920"
   inkscape:window-height="1005"
   id="namedview35"
   showgrid="false"
   fit-margin-top="1"
   fit-margin-bottom="1"
   fit-margin-right="1"
   fit-margin-left="1"
   inkscape:zoom="8.326176"
   inkscape:cx="20.130169"
   inkscape:cy="42.613852"
   inkscape:window-x="0"
   inkscape:window-y="0"
   inkscape:window-maximized="1"
   inkscape:current-layer="Layer_1" />
<path
   style="fill:#f05228;stroke-width:0.140626"
   d="M 32,2 C 15.431676,2 2,15.431677 2,32.000002 2,48.568323 15.431676,62 32,62 48.568323,62 62,48.568323 62,32.000002 62,15.431677 48.568464,2 32,2 Z M 48.546245,40.909451 40.910015,48.546245 32,39.636793 l -8.910015,8.910015 -7.63623,-7.637357 8.909452,-8.909449 -8.909452,-8.910017 7.63623,-7.63623 L 32,24.363208 l 8.910015,-8.909453 7.63623,7.63623 -8.909453,8.910017 z"
   id="path2" />
<g
   id="g4"
   transform="translate(1,1)">
</g>
<g
   id="g6"
   transform="translate(1,1)">
</g>
<g
   id="g8"
   transform="translate(1,1)">
</g>
<g
   id="g10"
   transform="translate(1,1)">
</g>
<g
   id="g12"
   transform="translate(1,1)">
</g>
<g
   id="g14"
   transform="translate(1,1)">
</g>
<g
   id="g16"
   transform="translate(1,1)">
</g>
<g
   id="g18"
   transform="translate(1,1)">
</g>
<g
   id="g20"
   transform="translate(1,1)">
</g>
<g
   id="g22"
   transform="translate(1,1)">
</g>
<g
   id="g24"
   transform="translate(1,1)">
</g>
<g
   id="g26"
   transform="translate(1,1)">
</g>
<g
   id="g28"
   transform="translate(1,1)">
</g>
<g
   id="g30"
   transform="translate(1,1)">
</g>
<g
   id="g32"
   transform="translate(1,1)">
</g>
</svg>
